<svg width="655" height="142" viewBox="0 0 655 142" fill="none" xmlns="http://www.w3.org/2000/svg">
<path d="M5.66244e-07 139.922C5.66244e-07 139.122 0.133334 138.055 0.400001 136.722L2.6 129.522C6.6 116.855 8.6 103.789 8.6 90.322V51.722C8.6 38.7886 6.66667 25.722 2.8 12.522L0.400001 5.32196C0.133334 3.98863 5.66244e-07 2.92196 5.66244e-07 2.12197C5.66244e-07 1.0553 0.533334 0.521964 1.6 0.521964H65.4C66.6 0.521964 67.3333 1.18863 67.6 2.52196L71.8 33.922C72.0667 35.2553 71.4667 35.922 70 35.922H66.2C64.8667 35.922 64.0667 35.322 63.8 34.122L61.2 23.922C59.7333 18.0553 56.6667 13.3886 52 9.92196C47.4667 6.32196 42.2 4.52196 36.2 4.52196H33.2C28.9333 4.6553 25.4667 6.0553 22.8 8.72197C20.1333 11.2553 18.7333 14.5886 18.6 18.722V53.922H33.6C36.6667 53.922 39.2 52.9886 41.2 51.122C43.3333 49.2553 44.6 46.8553 45 43.922L45.6 39.722C45.8667 38.3886 46.6 37.722 47.8 37.722H49.2C50.4 37.722 51 38.3886 51 39.722L47.4 72.122C47.1333 73.4553 46.4 74.122 45.2 74.122H43.8C42.6 74.122 42 73.4553 42 72.122L42.6 67.922C42.8667 64.9886 42.2 62.5886 40.6 60.722C39 58.8553 36.6667 57.922 33.6 57.922H18.6V123.322C18.7333 127.455 20.1333 130.855 22.8 133.522C25.4667 136.055 28.9333 137.389 33.2 137.522H38.2C44.2 137.522 49.4667 135.789 54 132.322C58.6667 128.722 61.7333 123.989 63.2 118.122L65.8 108.122C66.0667 106.789 66.8667 106.122 68.2 106.122H72C73.4667 106.122 74.0667 106.789 73.8 108.122L69.6 139.522C69.3333 140.855 68.6 141.522 67.4 141.522H40.6H1.6C0.533334 141.522 5.66244e-07 140.989 5.66244e-07 139.922ZM89.4531 28.922C89.4531 28.122 89.9198 27.722 90.8531 27.722H114.653H116.853C131.253 27.722 142.92 31.522 151.853 39.122C160.786 46.5886 165.253 56.3886 165.253 68.522C165.253 80.6553 160.786 90.4553 151.853 97.922C143.053 105.389 131.386 109.122 116.853 109.122H106.653C107.453 117.255 109.053 124.855 111.453 131.922L113.453 137.722C113.72 138.255 113.853 139.122 113.853 140.322C113.853 141.122 113.386 141.522 112.453 141.522H90.8531C89.9198 141.522 89.4531 141.055 89.4531 140.122C89.4531 139.589 89.5865 138.789 89.8531 137.722L91.8531 131.922C95.1865 121.922 96.9865 111.989 97.2531 102.122V68.922C97.2531 58.2553 95.4531 47.722 91.8531 37.322L89.8531 31.522C89.5865 30.4553 89.4531 29.5886 89.4531 28.922ZM106.253 100.122C106.253 102.389 106.32 104.055 106.453 105.122H114.053C125.786 104.989 135.12 101.789 142.053 95.522C148.986 89.122 152.52 80.1886 152.653 68.722C152.786 57.2553 149.386 48.1886 142.453 41.522C135.653 34.722 126.653 31.4553 115.453 31.722C113.32 31.722 111.586 33.522 110.253 37.122C107.853 44.722 106.52 53.8553 106.253 64.522V100.122ZM179.586 140.122C179.586 139.589 179.719 138.789 179.986 137.722L181.986 131.922C185.586 121.389 187.386 110.789 187.386 100.122V68.922C187.386 58.2553 185.586 47.722 181.986 37.322L179.986 31.522C179.719 30.4553 179.586 29.5886 179.586 28.922C179.586 28.122 180.053 27.722 180.986 27.722H202.586C203.519 27.722 203.986 28.122 203.986 28.922C203.986 29.5886 203.853 30.4553 203.586 31.522L201.586 37.322C198.519 46.3886 196.786 55.922 196.386 65.922V103.322C196.786 113.322 198.519 122.855 201.586 131.922L203.586 137.722C203.853 138.789 203.986 139.655 203.986 140.322C203.986 141.122 203.519 141.522 202.586 141.522H180.986C180.053 141.522 179.586 141.055 179.586 140.122ZM224.219 28.922C224.219 28.122 224.685 27.722 225.619 27.722H283.019C284.085 27.722 284.752 28.2553 285.019 29.322L288.819 54.722C289.085 55.7886 288.552 56.322 287.219 56.322H283.819C282.619 56.322 281.885 55.7886 281.619 54.722L279.219 46.522C277.885 41.8553 275.152 38.122 271.019 35.322C267.019 32.3886 262.285 30.922 256.819 30.922H254.019C250.285 31.0553 247.219 32.122 244.819 34.122C242.552 36.122 241.285 38.8553 241.019 42.322V70.922H254.419C257.219 70.922 259.552 70.1886 261.419 68.722C263.285 67.122 264.419 65.122 264.819 62.722L265.219 59.322C265.485 58.2553 266.152 57.722 267.219 57.722H268.419C269.752 57.722 270.285 58.2553 270.019 59.322L266.819 85.522C266.552 86.5886 265.885 87.122 264.819 87.122H263.619C262.552 87.122 262.019 86.5886 262.019 85.522L262.419 82.122C262.819 79.722 262.285 77.7886 260.819 76.322C259.352 74.8553 257.219 74.122 254.419 74.122L241.019 73.922V100.122C241.019 111.189 242.752 121.789 246.219 131.922L248.219 137.722C248.485 138.255 248.619 139.122 248.619 140.322C248.619 141.122 248.152 141.522 247.219 141.522H225.619C224.685 141.522 224.219 141.055 224.219 140.122C224.219 139.589 224.352 138.789 224.619 137.722L226.619 131.922C229.952 122.055 231.752 112.055 232.019 101.922V69.122C232.019 58.4553 230.219 47.8553 226.619 37.322L224.619 31.522C224.352 30.4553 224.219 29.5886 224.219 28.922ZM302.344 28.922C302.344 28.122 302.81 27.722 303.744 27.722H361.144C362.21 27.722 362.877 28.2553 363.144 29.322L366.944 54.722C367.21 55.7886 366.677 56.322 365.344 56.322H361.944C360.744 56.322 360.01 55.7886 359.744 54.722L357.344 46.522C356.01 41.8553 353.277 38.122 349.144 35.322C345.144 32.3886 340.41 30.922 334.944 30.922H332.144C328.41 31.0553 325.344 32.122 322.944 34.122C320.677 36.122 319.41 38.8553 319.144 42.322V70.922H332.544C335.344 70.922 337.677 70.1886 339.544 68.722C341.41 67.122 342.544 65.122 342.944 62.722L343.344 59.322C343.61 58.2553 344.277 57.722 345.344 57.722H346.544C347.877 57.722 348.41 58.2553 348.144 59.322L344.944 85.522C344.677 86.5886 344.01 87.122 342.944 87.122H341.744C340.677 87.122 340.144 86.5886 340.144 85.522L340.544 82.122C340.944 79.722 340.41 77.7886 338.944 76.322C337.477 74.8553 335.344 74.122 332.544 74.122L319.144 73.922V100.122C319.144 111.189 320.877 121.789 324.344 131.922L326.344 137.722C326.61 138.255 326.744 139.122 326.744 140.322C326.744 141.122 326.277 141.522 325.344 141.522H303.744C302.81 141.522 302.344 141.055 302.344 140.122C302.344 139.589 302.477 138.789 302.744 137.722L304.744 131.922C308.077 122.055 309.877 112.055 310.144 101.922V69.122C310.144 58.4553 308.344 47.8553 304.744 37.322L302.744 31.522C302.477 30.4553 302.344 29.5886 302.344 28.922ZM363.406 140.122C363.406 139.322 363.606 138.522 364.006 137.722L366.606 131.322C371.006 120.789 374.273 110.522 376.406 100.522L393.006 27.122C393.006 26.322 393.473 25.922 394.406 25.922H415.406C416.606 25.922 417.006 26.4553 416.606 27.522L414.206 36.122C410.873 46.2553 410.806 56.6553 414.006 67.322L423.806 100.722C426.206 109.255 429.473 119.655 433.606 131.922L435.606 137.722C435.873 138.789 436.006 139.655 436.006 140.322C436.006 141.122 435.54 141.522 434.606 141.522H413.006C412.073 141.522 411.606 141.055 411.606 140.122C411.606 139.322 411.74 138.522 412.006 137.722L414.006 131.922C417.206 122.589 417.606 112.855 415.206 102.722H379.806C378.073 112.722 378.406 122.522 380.806 132.122L382.206 137.722C382.473 138.789 382.606 139.655 382.606 140.322C382.606 141.122 382.14 141.522 381.206 141.522H364.806C363.873 141.522 363.406 141.055 363.406 140.122ZM380.406 99.522H414.406L405.006 67.122C404.073 64.0553 402.473 58.922 400.206 51.722C398.073 44.3886 396.54 39.122 395.606 35.922L395.006 34.122L380.406 99.522ZM450.019 31.322C449.485 30.522 449.219 29.722 449.219 28.922C449.219 28.122 449.685 27.722 450.619 27.722H452.819H460.419H462.419C463.752 27.722 464.619 28.1886 465.019 29.122L509.819 126.522H510.019V68.322C510.019 58.0553 508.285 47.722 504.819 37.322L502.819 31.522C502.419 30.722 502.219 29.8553 502.219 28.922C502.219 28.122 502.752 27.722 503.819 27.722H519.819C520.752 27.722 521.219 28.122 521.219 28.922C521.219 30.122 521.085 30.9886 520.819 31.522L518.819 37.322C515.619 46.7886 513.885 56.8553 513.619 67.522V128.722L516.819 137.722C517.085 138.789 517.219 139.655 517.219 140.322C517.219 141.122 516.752 141.522 515.819 141.522H507.019C505.685 141.522 504.819 140.989 504.419 139.922L460.619 44.522V100.522C460.619 111.455 462.352 121.922 465.819 131.922L467.819 137.722C468.085 138.789 468.219 139.655 468.219 140.322C468.219 141.122 467.752 141.522 466.819 141.522H450.619C449.685 141.522 449.219 141.055 449.219 140.122C449.219 139.589 449.352 138.789 449.619 137.722L451.619 131.922C454.952 122.055 456.752 112.055 457.019 101.922V45.722C457.019 42.2553 455.885 39.0553 453.619 36.122L450.019 31.322ZM541.305 140.122C541.305 139.589 541.438 138.789 541.705 137.722L543.705 131.922C547.305 121.389 549.105 110.789 549.105 100.122V68.922C549.105 58.2553 547.305 47.722 543.705 37.322L541.705 31.522C541.438 30.4553 541.305 29.5886 541.305 28.922C541.305 28.122 541.771 27.722 542.705 27.722H564.305C565.238 27.722 565.705 28.122 565.705 28.922C565.705 29.5886 565.571 30.4553 565.305 31.522L563.305 37.322C560.238 46.3886 558.505 55.922 558.105 65.922V103.322C558.505 113.322 560.238 122.855 563.305 131.922L565.305 137.722C565.571 138.789 565.705 139.655 565.705 140.322C565.705 141.122 565.238 141.522 564.305 141.522H542.705C541.771 141.522 541.305 141.055 541.305 140.122ZM581.961 140.122C581.961 139.322 582.161 138.522 582.561 137.722L585.161 131.322C589.561 120.789 592.828 110.522 594.961 100.522L611.561 27.122C611.561 26.322 612.028 25.922 612.961 25.922H633.961C635.161 25.922 635.561 26.4553 635.161 27.522L632.761 36.122C629.428 46.2553 629.361 56.6553 632.561 67.322L642.361 100.722C644.761 109.255 648.028 119.655 652.161 131.922L654.161 137.722C654.428 138.789 654.561 139.655 654.561 140.322C654.561 141.122 654.094 141.522 653.161 141.522H631.561C630.628 141.522 630.161 141.055 630.161 140.122C630.161 139.322 630.294 138.522 630.561 137.722L632.561 131.922C635.761 122.589 636.161 112.855 633.761 102.722H598.361C596.628 112.722 596.961 122.522 599.361 132.122L600.761 137.722C601.028 138.789 601.161 139.655 601.161 140.322C601.161 141.122 600.694 141.522 599.761 141.522H583.361C582.428 141.522 581.961 141.055 581.961 140.122ZM598.961 99.522H632.961L623.561 67.122C622.628 64.0553 621.028 58.922 618.761 51.722C616.628 44.3886 615.094 39.122 614.161 35.922L613.561 34.122L598.961 99.522Z" fill="url(#paint0_linear_11_3)"/>
<defs>
<linearGradient id="paint0_linear_11_3" x1="350.5" y1="-13.619" x2="323.191" y2="157.022" gradientUnits="userSpaceOnUse">
<stop offset="0.424995" stop-color="#DAA520"/>
<stop offset="0.545748" stop-color="#F7CB5E" stop-opacity="0.93"/>
<stop offset="0.623371" stop-color="#DAA520"/>
</linearGradient>
</defs>
</svg>
