<svg width="235" height="45" viewBox="0 0 235 45" fill="none" xmlns="http://www.w3.org/2000/svg">
<g filter="url(#filter0_d_33_14)">
<path d="M12.5269 35.1367C12.2648 35.0456 11.7008 35 10.835 35H3.7085C3.11605 35 2.64323 34.9089 2.29004 34.7266C1.93685 34.5329 1.76025 34.1854 1.76025 33.6841C1.76025 33.3195 1.8457 33.029 2.0166 32.8125C2.47233 32.9264 2.88818 32.9834 3.26416 32.9834C3.65153 32.9834 3.95345 32.9435 4.16992 32.8638C4.39779 32.784 4.59147 32.6416 4.75098 32.4365C5.10417 32.0036 5.29215 31.2915 5.31494 30.3003V12.8345C5.31494 11.9344 5.06429 11.3704 4.56299 11.1426C4.40348 11.0628 4.18701 10.9945 3.91357 10.9375C3.64014 10.8805 3.3667 10.8236 3.09326 10.7666C2.83122 10.6982 2.60905 10.6185 2.42676 10.5273C2.06217 10.3451 1.87988 10.0374 1.87988 9.60449C1.87988 9.18294 1.96533 8.86963 2.13623 8.66455C2.39827 8.7557 2.96224 8.80127 3.82812 8.80127H10.7837C11.3761 8.80127 11.849 8.89811 12.2021 9.0918C12.5667 9.27409 12.749 9.61589 12.749 10.1172C12.749 10.4932 12.6579 10.7837 12.4756 10.9888C12.0426 10.8748 11.5698 10.8179 11.0571 10.8179C9.95199 10.8179 9.38232 11.7179 9.34814 13.5181V30.9668C9.34814 31.8669 9.5988 32.4365 10.1001 32.6758C10.2596 32.7441 10.4761 32.8068 10.7495 32.8638C11.0229 32.9207 11.2907 32.9834 11.5527 33.0518C11.8262 33.1087 12.054 33.1828 12.2363 33.2739C12.6123 33.4676 12.8003 33.7752 12.8003 34.1968C12.8003 34.5955 12.7091 34.9089 12.5269 35.1367ZM25.7031 35.0854C25.4753 35.0285 25.1107 35 24.6094 35H19.1577C18.064 35 17.3633 34.8063 17.0557 34.4189C16.9303 34.2708 16.8677 34.0999 16.8677 33.9062C16.8677 33.4277 16.9588 33.0745 17.1411 32.8467C17.4146 32.9378 17.7222 32.9834 18.064 32.9834C18.4172 32.9834 18.6792 32.841 18.8501 32.5562C19.0324 32.2713 19.1178 31.7415 19.1064 30.9668V19.79C19.1064 18.7191 18.9071 18.0526 18.5083 17.7905C18.3488 17.688 18.138 17.6367 17.876 17.6367C17.6139 17.6367 17.4032 17.6766 17.2437 17.7563C17.0955 17.8361 16.9702 17.8931 16.8677 17.9272C16.7765 17.9614 16.6968 17.9614 16.6284 17.9272C16.5601 17.8817 16.4917 17.819 16.4233 17.7393C16.2524 17.557 16.167 17.369 16.167 17.1753C16.167 16.9702 16.2354 16.7594 16.3721 16.543C16.5202 16.3151 16.7537 16.0588 17.0728 15.7739C17.3918 15.4777 17.7563 15.21 18.1665 14.9707C19.0894 14.4352 20.0122 14.1675 20.9351 14.1675C21.9946 14.1675 22.6213 14.8682 22.8149 16.2695C22.8719 16.6797 22.9061 17.1012 22.9175 17.5342C24.6151 16.11 26.4608 15.096 28.4546 14.4922C29.1724 14.2757 29.8958 14.1675 30.625 14.1675C31.3656 14.1675 32.0662 14.2643 32.7271 14.458C33.3993 14.6517 33.9803 14.965 34.4702 15.3979C35.507 16.3094 36.0254 17.7336 36.0254 19.6704V31.2573C36.0596 32.146 36.39 32.6929 37.0166 32.8979C37.1875 32.9549 37.3983 33.0062 37.6489 33.0518C37.8996 33.0973 38.1217 33.1543 38.3154 33.2227C38.5205 33.2796 38.68 33.348 38.7939 33.4277C38.9876 33.5758 39.0845 33.8151 39.0845 34.1455C39.0845 34.5443 38.9933 34.8576 38.811 35.0854C38.5832 35.0285 38.2186 35 37.7173 35H32.2656C31.1719 35 30.4712 34.8063 30.1636 34.4189C30.0382 34.2708 29.9756 34.0999 29.9756 33.9062C29.9756 33.4277 30.0667 33.0745 30.249 32.8467C30.5225 32.9378 30.7731 32.9834 31.001 32.9834C31.2402 32.9834 31.4396 32.9549 31.5991 32.8979C31.7586 32.8296 31.884 32.7214 31.9751 32.5732C32.1346 32.2998 32.2144 31.7643 32.2144 30.9668V20.8838C32.2144 18.9469 31.639 17.8646 30.4883 17.6367C30.1351 17.5684 29.6908 17.5342 29.1553 17.5342C28.6312 17.5342 28.0501 17.6139 27.4121 17.7734C26.7741 17.9329 26.1759 18.138 25.6177 18.3887C24.5467 18.8672 23.6466 19.471 22.9175 20.2002V31.2573C22.9517 32.146 23.2764 32.6929 23.8916 32.8979C24.0739 32.9549 24.2847 33.0062 24.5239 33.0518C24.7746 33.0973 25.0024 33.1543 25.2075 33.2227C25.4126 33.2796 25.5721 33.348 25.686 33.4277C25.8797 33.5758 25.9766 33.8151 25.9766 34.1455C25.9766 34.5443 25.8854 34.8576 25.7031 35.0854ZM53.7476 32.8296C52.0841 34.493 50.0732 35.3247 47.7148 35.3247C45.8919 35.3247 44.4336 34.8006 43.3398 33.7524C42.2347 32.6929 41.6821 31.32 41.6821 29.6338C41.6821 27.5374 42.6164 25.9652 44.4849 24.917C46.1711 23.96 48.5465 23.4814 51.6113 23.4814H53.7476C53.759 23.0485 53.7646 22.627 53.7646 22.2168V20.9351C53.7646 19.4084 53.5425 18.3317 53.0981 17.7051C52.5968 16.9987 51.7424 16.6455 50.5347 16.6455C47.7661 16.6455 46.342 17.6367 46.2622 19.6191C46.2508 19.9268 46.2565 20.1831 46.2793 20.3882C46.0514 20.5705 45.6641 20.6616 45.1172 20.6616C44.5817 20.6616 44.1886 20.599 43.938 20.4736C43.6987 20.3483 43.488 20.1774 43.3057 19.9609C42.9183 19.5166 42.7246 18.9526 42.7246 18.269C42.7246 17.5741 42.924 16.9702 43.3228 16.4575C43.7329 15.9334 44.2855 15.5062 44.9805 15.1758C46.3363 14.5036 47.937 14.1675 49.7827 14.1675C51.6284 14.1675 53.0127 14.3498 53.9355 14.7144C54.8698 15.0675 55.6104 15.5404 56.1572 16.1328C57.1257 17.181 57.6099 18.5881 57.6099 20.354L57.439 28.5571C57.439 30.0496 57.5073 30.9953 57.644 31.394C57.7922 31.7928 57.9631 32.0605 58.1567 32.1973C58.3618 32.334 58.6068 32.4023 58.8916 32.4023C59.1878 32.4023 59.4271 32.3568 59.6094 32.2656L60.0879 32.0435C60.2474 31.9865 60.3841 32.0549 60.498 32.2485C60.6234 32.4308 60.686 32.596 60.686 32.7441C60.686 32.8809 60.6234 33.0632 60.498 33.291C60.3841 33.5189 60.1619 33.7638 59.8315 34.0259C59.5125 34.2765 59.1479 34.4987 58.7378 34.6924C56.4705 35.7633 54.9268 35.5127 54.1064 33.9404C53.9355 33.6328 53.8159 33.2625 53.7476 32.8296ZM53.6963 30.5908C53.6963 28.9502 53.7077 27.321 53.7305 25.7031C51.3607 25.7943 49.7485 25.9481 48.894 26.1646C48.0509 26.3696 47.4414 26.569 47.0654 26.7627C46.6895 26.9564 46.3932 27.1842 46.1768 27.4463C45.8236 27.8792 45.647 28.5343 45.647 29.4116C45.647 30.2775 45.9546 30.9725 46.5698 31.4966C47.1851 32.0093 48.068 32.2656 49.2188 32.2656C50.848 32.2656 52.3405 31.7074 53.6963 30.5908ZM64.4458 19.79C64.4458 19.1406 64.3945 18.6222 64.292 18.2349C64.2008 17.8361 64.0072 17.6367 63.7109 17.6367C63.4945 17.6367 63.3236 17.6595 63.1982 17.7051L62.7881 17.876C62.7083 17.8988 62.6115 17.8532 62.4976 17.7393C62.2811 17.5 62.1729 17.2835 62.1729 17.0898C62.1729 16.8848 62.2355 16.674 62.3608 16.4575C62.4976 16.2297 62.6969 15.9733 62.959 15.6885C63.2324 15.4036 63.54 15.153 63.8818 14.9365C64.6566 14.4238 65.3573 14.1675 65.9839 14.1675C66.6105 14.1675 67.0549 14.2757 67.3169 14.4922C67.5789 14.7087 67.7783 14.9935 67.915 15.3467C68.1429 15.9163 68.2568 16.7765 68.2568 17.9272V28.6255C68.2568 30.5509 68.8379 31.6276 70 31.8555C70.3532 31.9238 70.769 31.958 71.2476 31.958C71.7375 31.958 72.2559 31.8953 72.8027 31.77C73.361 31.6447 73.8908 31.4795 74.3921 31.2744C75.3605 30.8757 76.215 30.3687 76.9556 29.7534V19.79C76.9556 18.7077 76.7619 18.0412 76.3745 17.7905C76.215 17.688 76.0042 17.6367 75.7422 17.6367C75.4801 17.6367 75.2694 17.6766 75.1099 17.7563C74.9618 17.8361 74.8364 17.8931 74.7339 17.9272C74.6427 17.9614 74.563 17.9614 74.4946 17.9272C74.4263 17.8817 74.3522 17.819 74.2725 17.7393C74.1016 17.5456 74.0161 17.3519 74.0161 17.1582C74.0161 16.9645 74.0845 16.7594 74.2212 16.543C74.3693 16.3151 74.6029 16.0588 74.9219 15.7739C75.2409 15.4777 75.6055 15.21 76.0156 14.9707C76.9385 14.4352 77.8613 14.1675 78.7842 14.1675C79.9007 14.1675 80.5387 14.9593 80.6982 16.543C80.7438 16.9873 80.7666 17.4487 80.7666 17.9272V28.0444C80.7666 29.799 80.835 30.8927 80.9717 31.3257C81.1084 31.7586 81.2736 32.0435 81.4673 32.1802C81.661 32.3055 81.9002 32.3682 82.1851 32.3682C82.4699 32.3682 82.7035 32.3226 82.8857 32.2314L83.3984 32.0093C83.5465 31.9751 83.6776 32.0435 83.7915 32.2144C84.0308 32.5675 84.0649 32.8866 83.894 33.1714C83.7231 33.4562 83.4554 33.7297 83.0908 33.9917C82.7376 34.2537 82.3389 34.4816 81.8945 34.6753C79.9235 35.5412 78.5221 35.5241 77.6904 34.624C77.2575 34.1569 77.0125 33.4163 76.9556 32.4023C75.2808 33.6898 73.5661 34.5785 71.8115 35.0684C71.1735 35.2393 70.5013 35.3247 69.7949 35.3247C69.0999 35.3247 68.4163 35.2279 67.7441 35.0342C67.0833 34.8405 66.508 34.5272 66.0181 34.0942C64.9699 33.1714 64.4458 31.7472 64.4458 29.8218V19.79ZM92.9858 28.1812C92.5529 28.6141 92.3364 29.0356 92.3364 29.4458C92.3364 29.856 92.4561 30.1693 92.6953 30.3857C92.9346 30.5908 93.2479 30.7503 93.6353 30.8643C94.2277 31.0238 94.8828 31.1035 95.6006 31.1035H97.0703C100.785 31.1035 103.228 31.9922 104.402 33.7695C104.835 34.4303 105.051 35.2336 105.051 36.1792C105.051 37.1362 104.892 37.9736 104.573 38.6914C104.254 39.4092 103.826 40.0415 103.291 40.5884C102.756 41.1466 102.135 41.6252 101.428 42.0239C100.722 42.4227 99.9756 42.7474 99.1895 42.998C97.6514 43.5107 96.2158 43.7671 94.8828 43.7671C93.5498 43.7671 92.382 43.6589 91.3794 43.4424C90.3882 43.2373 89.5052 42.9126 88.7305 42.4683C87.0557 41.4998 86.2183 40.1099 86.2183 38.2983C86.2183 36.7603 86.9873 35.3817 88.5254 34.1626C88.9925 33.798 89.4881 33.4733 90.0122 33.1885C89.397 32.6758 89.0894 31.9865 89.0894 31.1206C89.0894 29.7648 89.7616 28.6255 91.106 27.7026C89.1349 26.9507 87.8418 25.6063 87.2266 23.6694C87.0329 23.0314 86.936 22.3193 86.936 21.5332C86.936 20.7471 87.0557 20.0065 87.2949 19.3115C87.5456 18.6165 87.8817 17.9956 88.3032 17.4487C88.7362 16.9019 89.2375 16.4233 89.8071 16.0132C90.3768 15.603 90.9863 15.2612 91.6357 14.9878C92.9118 14.4409 94.2505 14.1675 95.6519 14.1675C97.9647 14.1675 99.8104 14.7485 101.189 15.9106C101.337 15.341 101.411 14.7542 101.411 14.1504C101.411 13.5465 101.28 13.0566 101.018 12.6807C101.462 12.1566 102.123 11.8945 103 11.8945C103.502 11.8945 103.901 12.0312 104.197 12.3047C104.766 12.7946 105.051 13.2845 105.051 13.7744C105.051 14.2529 104.977 14.6745 104.829 15.0391C104.681 15.3923 104.487 15.7284 104.248 16.0474C103.826 16.6398 103.28 17.1753 102.607 17.6538C103.063 18.5083 103.291 19.4995 103.291 20.6274C103.291 21.744 103.04 22.7865 102.539 23.7549C102.049 24.7119 101.388 25.5265 100.557 26.1987C98.8477 27.5773 96.7399 28.2666 94.2334 28.2666C93.8916 28.2666 93.4757 28.2381 92.9858 28.1812ZM92.1484 24.541C92.5586 24.9398 93.0257 25.236 93.5498 25.4297C94.0739 25.6234 94.6322 25.7202 95.2246 25.7202C95.8285 25.7202 96.3924 25.6348 96.9165 25.4639C97.452 25.293 97.9134 25.0423 98.3008 24.7119C99.1325 24.0055 99.5483 23.0029 99.5483 21.7041C99.5483 20.2686 99.1781 19.0723 98.4375 18.1152C97.5944 17.0557 96.4095 16.5259 94.8828 16.5259C92.9574 16.5259 91.7098 17.312 91.1401 18.8843C90.9465 19.4198 90.8496 20.0806 90.8496 20.8667C90.8496 21.6528 90.9635 22.3592 91.1914 22.9858C91.4307 23.6125 91.7497 24.1309 92.1484 24.541ZM92.1655 34.1968C90.673 35.2108 89.9268 36.3615 89.9268 37.6489C89.9268 38.7655 90.5762 39.6143 91.875 40.1953C92.9118 40.6738 94.1878 40.9131 95.7031 40.9131C97.0817 40.9131 98.3577 40.6852 99.5312 40.2295C101.069 39.6257 101.838 38.6401 101.838 37.2729C101.838 35.4386 100.352 34.5215 97.3779 34.5215L95.8569 34.5386C94.3075 34.5386 93.077 34.4246 92.1655 34.1968ZM109.221 19.79C109.221 19.1406 109.17 18.6222 109.067 18.2349C108.976 17.8361 108.783 17.6367 108.486 17.6367C108.27 17.6367 108.099 17.6595 107.974 17.7051L107.563 17.876C107.484 17.8988 107.387 17.8532 107.273 17.7393C107.056 17.5 106.948 17.2835 106.948 17.0898C106.948 16.8848 107.011 16.674 107.136 16.4575C107.273 16.2297 107.472 15.9733 107.734 15.6885C108.008 15.4036 108.315 15.153 108.657 14.9365C109.432 14.4238 110.133 14.1675 110.759 14.1675C111.386 14.1675 111.83 14.2757 112.092 14.4922C112.354 14.7087 112.554 14.9935 112.69 15.3467C112.918 15.9163 113.032 16.7765 113.032 17.9272V28.6255C113.032 30.5509 113.613 31.6276 114.775 31.8555C115.129 31.9238 115.544 31.958 116.023 31.958C116.513 31.958 117.031 31.8953 117.578 31.77C118.136 31.6447 118.666 31.4795 119.167 31.2744C120.136 30.8757 120.99 30.3687 121.731 29.7534V19.79C121.731 18.7077 121.537 18.0412 121.15 17.7905C120.99 17.688 120.78 17.6367 120.518 17.6367C120.256 17.6367 120.045 17.6766 119.885 17.7563C119.737 17.8361 119.612 17.8931 119.509 17.9272C119.418 17.9614 119.338 17.9614 119.27 17.9272C119.202 17.8817 119.128 17.819 119.048 17.7393C118.877 17.5456 118.792 17.3519 118.792 17.1582C118.792 16.9645 118.86 16.7594 118.997 16.543C119.145 16.3151 119.378 16.0588 119.697 15.7739C120.016 15.4777 120.381 15.21 120.791 14.9707C121.714 14.4352 122.637 14.1675 123.56 14.1675C124.676 14.1675 125.314 14.9593 125.474 16.543C125.519 16.9873 125.542 17.4487 125.542 17.9272V28.0444C125.542 29.799 125.61 30.8927 125.747 31.3257C125.884 31.7586 126.049 32.0435 126.243 32.1802C126.436 32.3055 126.676 32.3682 126.96 32.3682C127.245 32.3682 127.479 32.3226 127.661 32.2314L128.174 32.0093C128.322 31.9751 128.453 32.0435 128.567 32.2144C128.806 32.5675 128.84 32.8866 128.669 33.1714C128.499 33.4562 128.231 33.7297 127.866 33.9917C127.513 34.2537 127.114 34.4816 126.67 34.6753C124.699 35.5412 123.298 35.5241 122.466 34.624C122.033 34.1569 121.788 33.4163 121.731 32.4023C120.056 33.6898 118.341 34.5785 116.587 35.0684C115.949 35.2393 115.277 35.3247 114.57 35.3247C113.875 35.3247 113.192 35.2279 112.52 35.0342C111.859 34.8405 111.283 34.5272 110.793 34.0942C109.745 33.1714 109.221 31.7472 109.221 29.8218V19.79ZM140.632 35.0854C140.393 35.0285 140.028 35 139.539 35H133.745C132.651 35 131.951 34.8063 131.643 34.4189C131.518 34.2708 131.455 34.0999 131.455 33.9062C131.455 33.4277 131.546 33.0745 131.729 32.8467C132.002 32.9378 132.253 32.9834 132.48 32.9834C132.72 32.9834 132.919 32.9549 133.079 32.8979C133.238 32.8296 133.363 32.7214 133.455 32.5732C133.614 32.2998 133.694 31.7643 133.694 30.9668V19.79C133.694 18.7191 133.494 18.0526 133.096 17.7905C132.936 17.688 132.725 17.6367 132.463 17.6367C132.201 17.6367 131.991 17.6766 131.831 17.7563C131.683 17.8361 131.558 17.8931 131.455 17.9272C131.364 17.9614 131.284 17.9614 131.216 17.9272C131.147 17.8817 131.079 17.819 131.011 17.7393C130.84 17.5342 130.754 17.3405 130.754 17.1582C130.754 16.9645 130.823 16.7594 130.959 16.543C131.108 16.3151 131.341 16.0588 131.66 15.7739C131.979 15.4777 132.344 15.21 132.754 14.9707C133.677 14.4352 134.6 14.1675 135.522 14.1675C136.571 14.1675 137.192 14.8511 137.385 16.2183C137.442 16.617 137.476 17.0329 137.488 17.4658C139.151 15.9961 140.866 14.9878 142.632 14.4409C143.224 14.2586 143.76 14.1675 144.238 14.1675C144.728 14.1675 145.127 14.2358 145.435 14.3726C145.754 14.5093 146.004 14.6973 146.187 14.9365C146.528 15.4036 146.699 16.0018 146.699 16.731C146.699 17.4601 146.665 18.0412 146.597 18.4741C146.528 18.9071 146.443 19.2887 146.34 19.6191C146.135 20.2913 145.942 20.7186 145.759 20.9009C145.44 21.2313 145.013 21.3965 144.478 21.3965C143.931 21.3965 143.657 21.237 143.657 20.918C143.657 19.6989 143.606 18.9185 143.503 18.5767C143.31 17.95 142.945 17.6367 142.41 17.6367C141.874 17.6367 141.39 17.6994 140.957 17.8247C140.524 17.9386 140.103 18.0981 139.692 18.3032C138.861 18.7134 138.132 19.2432 137.505 19.8926V31.2573C137.539 32.1574 137.932 32.7043 138.684 32.8979C138.901 32.9549 139.146 33.0062 139.419 33.0518C139.692 33.0973 139.926 33.1543 140.12 33.2227C140.325 33.2796 140.484 33.348 140.598 33.4277C140.792 33.5758 140.889 33.8151 140.889 34.1455C140.889 34.5557 140.803 34.869 140.632 35.0854ZM161.243 32.8296C159.579 34.493 157.568 35.3247 155.21 35.3247C153.387 35.3247 151.929 34.8006 150.835 33.7524C149.73 32.6929 149.177 31.32 149.177 29.6338C149.177 27.5374 150.111 25.9652 151.98 24.917C153.666 23.96 156.042 23.4814 159.106 23.4814H161.243C161.254 23.0485 161.26 22.627 161.26 22.2168V20.9351C161.26 19.4084 161.038 18.3317 160.593 17.7051C160.092 16.9987 159.237 16.6455 158.03 16.6455C155.261 16.6455 153.837 17.6367 153.757 19.6191C153.746 19.9268 153.752 20.1831 153.774 20.3882C153.547 20.5705 153.159 20.6616 152.612 20.6616C152.077 20.6616 151.684 20.599 151.433 20.4736C151.194 20.3483 150.983 20.1774 150.801 19.9609C150.413 19.5166 150.22 18.9526 150.22 18.269C150.22 17.5741 150.419 16.9702 150.818 16.4575C151.228 15.9334 151.781 15.5062 152.476 15.1758C153.831 14.5036 155.432 14.1675 157.278 14.1675C159.124 14.1675 160.508 14.3498 161.431 14.7144C162.365 15.0675 163.105 15.5404 163.652 16.1328C164.621 17.181 165.105 18.5881 165.105 20.354L164.934 28.5571C164.934 30.0496 165.002 30.9953 165.139 31.394C165.287 31.7928 165.458 32.0605 165.652 32.1973C165.857 32.334 166.102 32.4023 166.387 32.4023C166.683 32.4023 166.922 32.3568 167.104 32.2656L167.583 32.0435C167.743 31.9865 167.879 32.0549 167.993 32.2485C168.118 32.4308 168.181 32.596 168.181 32.7441C168.181 32.8809 168.118 33.0632 167.993 33.291C167.879 33.5189 167.657 33.7638 167.327 34.0259C167.008 34.2765 166.643 34.4987 166.233 34.6924C163.966 35.7633 162.422 35.5127 161.602 33.9404C161.431 33.6328 161.311 33.2625 161.243 32.8296ZM161.191 30.5908C161.191 28.9502 161.203 27.321 161.226 25.7031C158.856 25.7943 157.244 25.9481 156.389 26.1646C155.546 26.3696 154.937 26.569 154.561 26.7627C154.185 26.9564 153.888 27.1842 153.672 27.4463C153.319 27.8792 153.142 28.5343 153.142 29.4116C153.142 30.2775 153.45 30.9725 154.065 31.4966C154.68 32.0093 155.563 32.2656 156.714 32.2656C158.343 32.2656 159.836 31.7074 161.191 30.5908ZM179.836 36.8799C182.457 36.9368 183.767 37.8312 183.767 39.563C183.767 41.3517 182.292 42.5765 179.341 43.2373C178.281 43.4652 177.336 43.5677 176.504 43.5449C176.287 43.4082 176.179 43.1177 176.179 42.6733C176.179 42.1948 176.339 41.9328 176.658 41.8872C176.988 41.8416 177.353 41.779 177.751 41.6992C178.15 41.6195 178.521 41.5112 178.862 41.3745C179.694 41.0441 180.11 40.5998 180.11 40.0415C180.11 39.2782 179.324 38.868 177.751 38.811C177.626 38.811 177.524 38.6857 177.444 38.4351C177.375 38.1958 177.341 38.0591 177.341 38.0249L177.974 35.2222C175.752 34.9146 173.98 33.929 172.659 32.2656C171.28 30.5225 170.591 28.2723 170.591 25.5151C170.591 22.006 171.662 19.1862 173.804 17.0557C175.752 15.1302 178.002 14.1675 180.554 14.1675C182.229 14.1675 183.625 14.5264 184.741 15.2441C185.915 15.9961 186.501 16.9873 186.501 18.2178C186.501 18.89 186.353 19.397 186.057 19.7388C185.544 20.3426 184.946 20.6445 184.263 20.6445C183.59 20.6445 183.089 20.5648 182.759 20.4053L182.776 19.79C182.776 19.5736 182.725 19.209 182.622 18.6963C182.52 18.1722 182.189 17.745 181.631 17.4146C181.084 17.0841 180.383 16.9189 179.529 16.9189C178.686 16.9189 177.934 17.1354 177.273 17.5684C176.624 17.9899 176.094 18.5596 175.684 19.2773C174.909 20.6445 174.521 22.4731 174.521 24.7632C174.521 26.9279 175.046 28.6882 176.094 30.0439C177.165 31.4339 178.577 32.1289 180.332 32.1289C181.927 32.1289 183.454 31.6903 184.912 30.813C185.265 30.5965 185.539 30.4085 185.732 30.249C185.846 30.249 185.977 30.3402 186.125 30.5225C186.41 30.8529 186.553 31.1206 186.553 31.3257C186.553 31.5194 186.479 31.7358 186.331 31.9751C186.182 32.203 185.972 32.4536 185.698 32.7271C185.436 33.0005 185.111 33.2796 184.724 33.5645C184.337 33.8493 183.904 34.1113 183.425 34.3506C182.343 34.8975 181.226 35.2108 180.076 35.2905L179.836 36.8799ZM201.951 32.8296C200.287 34.493 198.276 35.3247 195.918 35.3247C194.095 35.3247 192.637 34.8006 191.543 33.7524C190.438 32.6929 189.885 31.32 189.885 29.6338C189.885 27.5374 190.819 25.9652 192.688 24.917C194.374 23.96 196.75 23.4814 199.814 23.4814H201.951C201.962 23.0485 201.968 22.627 201.968 22.2168V20.9351C201.968 19.4084 201.746 18.3317 201.301 17.7051C200.8 16.9987 199.945 16.6455 198.738 16.6455C195.969 16.6455 194.545 17.6367 194.465 19.6191C194.454 19.9268 194.46 20.1831 194.482 20.3882C194.255 20.5705 193.867 20.6616 193.32 20.6616C192.785 20.6616 192.392 20.599 192.141 20.4736C191.902 20.3483 191.691 20.1774 191.509 19.9609C191.121 19.5166 190.928 18.9526 190.928 18.269C190.928 17.5741 191.127 16.9702 191.526 16.4575C191.936 15.9334 192.489 15.5062 193.184 15.1758C194.539 14.5036 196.14 14.1675 197.986 14.1675C199.832 14.1675 201.216 14.3498 202.139 14.7144C203.073 15.0675 203.813 15.5404 204.36 16.1328C205.329 17.181 205.813 18.5881 205.813 20.354L205.642 28.5571C205.642 30.0496 205.71 30.9953 205.847 31.394C205.995 31.7928 206.166 32.0605 206.36 32.1973C206.565 32.334 206.81 32.4023 207.095 32.4023C207.391 32.4023 207.63 32.3568 207.812 32.2656L208.291 32.0435C208.451 31.9865 208.587 32.0549 208.701 32.2485C208.826 32.4308 208.889 32.596 208.889 32.7441C208.889 32.8809 208.826 33.0632 208.701 33.291C208.587 33.5189 208.365 33.7638 208.035 34.0259C207.716 34.2765 207.351 34.4987 206.941 34.6924C204.674 35.7633 203.13 35.5127 202.31 33.9404C202.139 33.6328 202.019 33.2625 201.951 32.8296ZM201.899 30.5908C201.899 28.9502 201.911 27.321 201.934 25.7031C199.564 25.7943 197.952 25.9481 197.097 26.1646C196.254 26.3696 195.645 26.569 195.269 26.7627C194.893 26.9564 194.596 27.1842 194.38 27.4463C194.027 27.8792 193.85 28.5343 193.85 29.4116C193.85 30.2775 194.158 30.9725 194.773 31.4966C195.388 32.0093 196.271 32.2656 197.422 32.2656C199.051 32.2656 200.544 31.7074 201.899 30.5908ZM194.893 8.88672C193.594 8.88672 192.483 9.61019 191.56 11.0571C190.865 10.8634 190.518 10.4419 190.518 9.79248C190.518 9.07471 191.03 8.20312 192.056 7.17773C193.218 6.01562 194.437 5.43457 195.713 5.43457C196.396 5.43457 196.989 5.58838 197.49 5.896C198.003 6.19222 198.402 6.44857 198.687 6.66504C198.983 6.87012 199.285 7.0638 199.592 7.24609C200.299 7.66764 201.028 7.87842 201.78 7.87842C202.953 7.87842 204.03 7.14355 205.01 5.67383C205.443 5.67383 205.762 5.95296 205.967 6.51123C206.024 6.67074 206.052 6.84733 206.052 7.04102C206.052 7.2347 205.984 7.47965 205.847 7.77588C205.71 8.0721 205.522 8.37972 205.283 8.69873C205.055 9.01774 204.776 9.33675 204.446 9.65576C204.115 9.96338 203.757 10.2425 203.369 10.4932C202.526 11.0286 201.797 11.2964 201.182 11.2964C200.566 11.2964 200.082 11.2394 199.729 11.1255C199.387 11.0002 199.062 10.8521 198.755 10.6812C198.459 10.4989 198.162 10.3052 197.866 10.1001C197.581 9.88363 197.285 9.68424 196.978 9.50195C196.271 9.0918 195.576 8.88672 194.893 8.88672ZM211.042 25.5664C211.042 24.1764 211.179 22.9289 211.453 21.8237C211.726 20.7186 212.102 19.7445 212.581 18.9014C213.059 18.0583 213.623 17.3405 214.272 16.748C214.922 16.1442 215.617 15.6543 216.357 15.2783C217.804 14.5378 219.394 14.1675 221.125 14.1675C223.347 14.1675 225.233 14.9764 226.782 16.5942C228.503 18.3716 229.363 20.7186 229.363 23.6353C229.363 27.4634 228.32 30.4427 226.235 32.5732C224.424 34.4076 222.253 35.3247 219.724 35.3247C217.081 35.3247 214.962 34.3962 213.367 32.5391C211.817 30.7503 211.042 28.4261 211.042 25.5664ZM220.732 32.5391C221.496 32.5391 222.179 32.3625 222.783 32.0093C223.387 31.6447 223.9 31.1491 224.321 30.5225C225.164 29.2236 225.586 27.5374 225.586 25.4639C225.586 23.1852 225.142 21.2484 224.253 19.6533C223.25 17.819 221.809 16.9019 219.929 16.9019C218.414 16.9019 217.201 17.4829 216.289 18.645C215.321 19.8755 214.836 21.5959 214.836 23.8062C214.836 26.5747 215.446 28.7622 216.665 30.3687C217.759 31.8156 219.115 32.5391 220.732 32.5391Z" fill="url(#paint0_linear_33_14)" shape-rendering="crispEdges"/>
</g>
<defs>
<filter id="filter0_d_33_14" x="0.760254" y="0.43457" width="233.603" height="44.3325" filterUnits="userSpaceOnUse" color-interpolation-filters="sRGB">
<feFlood flood-opacity="0" result="BackgroundImageFix"/>
<feColorMatrix in="SourceAlpha" type="matrix" values="0 0 0 0 0 0 0 0 0 0 0 0 0 0 0 0 0 0 127 0" result="hardAlpha"/>
<feOffset dx="2" dy="-2"/>
<feGaussianBlur stdDeviation="1.5"/>
<feComposite in2="hardAlpha" operator="out"/>
<feColorMatrix type="matrix" values="0 0 0 0 0 0 0 0 0 0 0 0 0 0 0 0 0 0 0.25 0"/>
<feBlend mode="normal" in2="BackgroundImageFix" result="effect1_dropShadow_33_14"/>
<feBlend mode="normal" in="SourceGraphic" in2="effect1_dropShadow_33_14" result="shape"/>
</filter>
<linearGradient id="paint0_linear_33_14" x1="124.509" y1="2.43606" x2="120.946" y2="39.0484" gradientUnits="userSpaceOnUse">
<stop offset="0.424995" stop-color="#DAA520"/>
<stop offset="0.545748" stop-color="#F7CB5E" stop-opacity="0.93"/>
<stop offset="0.623371" stop-color="#DAA520"/>
</linearGradient>
</defs>
</svg>
