<svg width="26" height="24" viewBox="0 0 26 24" fill="none" xmlns="http://www.w3.org/2000/svg">
<path d="M22.5611 5.51906C22.4848 5.43481 22.3894 5.36705 22.2817 5.32056C22.1739 5.27407 22.0564 5.24998 21.9375 5.25H5.55344L5.0568 2.73187C4.98877 2.38625 4.7915 2.07363 4.49936 1.84851C4.20722 1.62339 3.83876 1.50005 3.4582 1.5H1.625C1.40951 1.5 1.20285 1.57902 1.05048 1.71967C0.898102 1.86032 0.8125 2.05109 0.8125 2.25C0.8125 2.44891 0.898102 2.63968 1.05048 2.78033C1.20285 2.92098 1.40951 3 1.625 3H3.45313L6.04906 16.1522C6.12553 16.5422 6.31227 16.9067 6.59039 17.2087C6.20653 17.5397 5.92947 17.9623 5.78993 18.4298C5.6504 18.8972 5.65383 19.3912 5.79986 19.8569C5.94589 20.3226 6.2288 20.7419 6.61723 21.0683C7.00566 21.3947 7.48443 21.6154 8.00044 21.7059C8.51646 21.7965 9.04956 21.7533 9.54063 21.5813C10.0317 21.4092 10.4616 21.115 10.7825 20.7312C11.1035 20.3474 11.303 19.889 11.359 19.407C11.415 18.9249 11.3253 18.4379 11.0998 18H15.7127C15.531 18.3513 15.4369 18.7357 15.4375 19.125C15.4375 19.6442 15.6043 20.1517 15.9168 20.5834C16.2292 21.0151 16.6734 21.3515 17.193 21.5502C17.7126 21.7489 18.2844 21.8008 18.836 21.6996C19.3877 21.5983 19.8944 21.3483 20.2921 20.9812C20.6898 20.614 20.9606 20.1463 21.0704 19.6371C21.1801 19.1279 21.1238 18.6001 20.9085 18.1205C20.6933 17.6408 20.3288 17.2308 19.8612 16.9424C19.3935 16.654 18.8437 16.5 18.2813 16.5H8.44695C8.25668 16.5 8.07244 16.4383 7.92638 16.3257C7.78031 16.2132 7.68167 16.0569 7.64766 15.8841L7.3257 14.25H19.107C19.6778 14.2499 20.2305 14.0649 20.6687 13.7272C21.1069 13.3896 21.4028 12.9206 21.5048 12.4022L22.7398 6.13406C22.7608 6.02572 22.7556 5.91447 22.7247 5.80818C22.6938 5.7019 22.6379 5.60319 22.5611 5.51906ZM9.75 19.125C9.75 19.3475 9.67852 19.565 9.5446 19.75C9.41069 19.935 9.22034 20.0792 8.99765 20.1644C8.77495 20.2495 8.5299 20.2718 8.29348 20.2284C8.05707 20.185 7.83991 20.0778 7.66946 19.9205C7.49902 19.7632 7.38294 19.5627 7.33592 19.3445C7.28889 19.1262 7.31303 18.9 7.40527 18.6945C7.49752 18.4889 7.65373 18.3132 7.85415 18.1896C8.05457 18.066 8.2902 18 8.53125 18C8.85448 18 9.16448 18.1185 9.39304 18.3295C9.6216 18.5405 9.75 18.8266 9.75 19.125ZM19.5 19.125C19.5 19.3475 19.4285 19.565 19.2946 19.75C19.1607 19.935 18.9703 20.0792 18.7476 20.1644C18.5249 20.2495 18.2799 20.2718 18.0435 20.2284C17.8071 20.185 17.5899 20.0778 17.4195 19.9205C17.249 19.7632 17.1329 19.5627 17.0859 19.3445C17.0389 19.1262 17.063 18.9 17.1553 18.6945C17.2475 18.4889 17.4037 18.3132 17.6042 18.1896C17.8046 18.066 18.0402 18 18.2813 18C18.6045 18 18.9145 18.1185 19.143 18.3295C19.3716 18.5405 19.5 18.8266 19.5 19.125ZM19.9063 12.1341C19.8721 12.3074 19.7731 12.464 19.6264 12.5766C19.4797 12.6893 19.2947 12.7506 19.1039 12.75H7.03016L5.84898 6.75H20.9635L19.9063 12.1341Z" fill="url(#paint0_linear_33_17)"/>
<defs>
<linearGradient id="paint0_linear_33_17" x1="25.5" y1="4" x2="5.5" y2="25.5" gradientUnits="userSpaceOnUse">
<stop offset="0.346839" stop-color="#DAA520"/>
<stop offset="0.433588" stop-color="#DAA520" stop-opacity="0.68"/>
<stop offset="0.560035" stop-color="#DAA520"/>
</linearGradient>
</defs>
</svg>
